<?xml version="1.0" standalone="no"?>
<!DOCTYPE svg PUBLIC "-//W3C//DTD SVG 20010904//EN"
 "http://www.w3.org/TR/2001/REC-SVG-20010904/DTD/svg10.dtd">
<svg version="1.0" xmlns="http://www.w3.org/2000/svg"
 width="400.000000pt" height="400.000000pt" viewBox="0 0 400.000000 400.000000"
 preserveAspectRatio="xMidYMid meet">
<metadata>
Created by potrace 1.11, written by Peter Selinger 2001-2013
</metadata>
<g transform="translate(0.000000,400.000000) scale(0.100000,-0.100000)"
fill="#000000" stroke="none">
<path d="M990 3770 c-161 -38 -345 -80 -352 -80 -4 0 -10 -21 -14 -47 -7 -48
-10 -67 -18 -113 -3 -14 -8 -47 -11 -75 -3 -27 -8 -61 -10 -75 -9 -61 -15
-101 -25 -185 -6 -49 -12 -106 -15 -125 -5 -40 -12 -110 -20 -190 -3 -30 -7
-75 -10 -100 -7 -72 -20 -245 -32 -435 -9 -156 -9 -871 0 -988 8 -96 11 -115
23 -187 3 -19 8 -46 10 -60 10 -61 49 -170 81 -232 114 -219 375 -287 638
-168 173 78 417 286 739 629 32 34 62 59 65 54 3 -5 61 -86 128 -179 298 -414
514 -715 660 -919 87 -121 165 -228 174 -238 16 -18 20 -18 120 3 57 12 115
24 129 27 33 6 169 32 196 38 13 3 24 15 27 32 4 16 14 62 23 103 8 41 18 86
20 100 3 14 9 44 15 68 5 23 12 59 15 80 2 20 11 71 19 112 8 41 19 111 26
155 6 44 12 87 14 95 1 8 6 40 10 70 3 30 8 66 10 80 2 14 7 50 10 80 3 30 7
71 10 90 4 36 15 155 21 225 23 292 20 696 -5 883 -5 37 -12 92 -16 122 -56
485 -172 695 -413 749 -65 14 -199 5 -264 -18 -122 -42 -261 -127 -403 -246
-53 -44 -350 -337 -434 -428 -29 -32 -54 -57 -56 -55 -4 5 -496 690 -534 744
-258 365 -449 623 -461 622 -8 0 -49 -8 -90 -18z m363 -1422 c153 -212 280
-393 283 -401 6 -16 -51 -80 -226 -255 -160 -160 -344 -312 -378 -312 -6 0
-13 19 -17 43 -4 23 -9 51 -11 62 -23 114 -22 572 1 803 2 20 6 71 10 112 3
41 8 93 10 115 2 22 7 67 10 100 12 126 17 148 30 133 7 -7 136 -187 288 -400z
m1771 45 c9 -37 20 -105 24 -152 8 -117 7 -470 -2 -611 -8 -118 -9 -139 -20
-250 -11 -111 -44 -341 -49 -346 -2 -2 -45 56 -97 129 -52 73 -143 200 -203
282 -128 178 -136 188 -236 329 l-78 108 71 76 c106 113 243 250 315 316 75
68 231 183 251 185 3 1 14 -29 24 -66z"/>
</g>
</svg>
